<svg width="131" height="131" viewBox="0 0 131 131" fill="none" xmlns="http://www.w3.org/2000/svg">
<path d="M26.4393 52.5434C27.5491 52.5434 28.1907 51.9364 28.3642 50.7225C28.711 48.3295 29.7861 46.6994 31.5896 45.8324C32.4913 45.4509 32.9422 44.8439 32.9422 44.0116C32.9422 43.4913 32.7688 43.0578 32.422 42.711C32.1098 42.3642 31.711 42.1908 31.2254 42.1908C30.2197 42.1908 29.2139 42.6243 28.2081 43.4913C27.2023 44.3584 26.3699 45.4509 25.711 46.7688C25.052 48.0867 24.7225 49.422 24.7225 50.7746C24.7225 51.9538 25.2948 52.5434 26.4393 52.5434ZM35.9075 72C30.4971 72 26.1792 71.2717 22.9538 69.815C19.763 68.3237 17.4566 65.9133 16.0347 62.5838C14.6474 59.2197 13.9538 54.7283 13.9538 49.1098C13.9538 47.4798 13.659 46.2659 13.0694 45.4682C12.4798 44.6358 11.4566 44.0983 10 43.8555V37.1445C13.3988 36.7283 16.9364 36.4335 20.6127 36.2601C24.289 36.0867 27.6532 36 30.7052 36C37.6416 36 43.9364 36.2601 49.5896 36.7803C55.2775 37.3006 60.6012 37.5607 65.5607 37.5607C68.9595 37.5607 72.4451 37.4393 76.0173 37.1965C79.6243 36.9191 83.4393 36.659 87.4624 36.4162C91.4855 36.1387 95.8035 36 100.416 36C103.468 36 106.832 36.0867 110.509 36.2601C114.22 36.4335 117.757 36.7283 121.121 37.1445V43.8555C119.699 44.0983 118.676 44.6358 118.052 45.4682C117.462 46.2659 117.168 47.4798 117.168 49.1098C117.168 54.7283 116.457 59.2197 115.035 62.5838C113.647 65.9133 111.358 68.3237 108.168 69.815C104.977 71.2717 100.659 72 95.2139 72C89.7688 72 85.2428 70.8555 81.6358 68.5665C78.0636 66.2775 75.6532 63 74.4046 58.7341L73.8844 56.9653C72.6012 52.526 71.3699 49.526 70.1907 47.9653C69.0462 46.4046 67.5029 45.6243 65.5607 45.6243C63.6185 45.6243 62.0751 46.4046 60.9306 47.9653C59.8208 49.526 58.6069 52.526 57.289 56.9653L56.7688 58.7341C55.5202 63 53.0925 66.2775 49.4855 68.5665C45.9133 70.8555 41.3873 72 35.9075 72ZM81.6358 52.5434C82.7457 52.5434 83.3873 51.9364 83.5607 50.7225C83.9075 48.2601 84.9653 46.6301 86.7341 45.8324C87.6705 45.4509 88.1387 44.8439 88.1387 44.0116C88.1387 43.4913 87.9653 43.0578 87.6185 42.711C87.3064 42.3642 86.9075 42.1908 86.422 42.1908C85.4162 42.1908 84.4104 42.6243 83.4046 43.4913C82.3988 44.3584 81.5665 45.4509 80.9075 46.7688C80.2485 48.0867 79.9191 49.422 79.9191 50.7746C79.9191 51.9538 80.4913 52.5434 81.6358 52.5434Z" fill="black"/>
<path fill-rule="evenodd" clip-rule="evenodd" d="M37.125 88.5C46.1667 94.5833 55.625 97.625 65.5 97.625C75.375 97.625 84.8333 94.5833 93.875 88.5L91.125 84.3125C82.8333 89.8542 74.2917 92.625 65.5 92.625C56.7083 92.625 48.1667 89.8542 39.875 84.3125L37.125 88.5Z" fill="black"/>
</svg>
