<svg width="131" height="131" viewBox="0 0 131 131" fill="none" xmlns="http://www.w3.org/2000/svg">
<path fill-rule="evenodd" clip-rule="evenodd" d="M76.5625 94.9375C80.1458 96.0208 84.0833 97.8125 88.375 100.312L90.875 95.9375C86.3333 93.2708 82.0208 91.3333 77.9375 90.125C73.8958 88.875 69.75 88.25 65.5 88.25C59.375 88.25 53.125 89.625 46.75 92.375L48.75 97C54.5833 94.5 60.1667 93.25 65.5 93.25C69.3333 93.25 73.0208 93.8125 76.5625 94.9375ZM38 63.75C39.5417 65.5833 41.375 66.5 43.5 66.5C45.625 66.5 47.4583 65.5833 49 63.75C50.5417 61.875 51.3125 59.6667 51.3125 57.125C51.3125 54.5417 50.5417 52.3333 49 50.5C47.4583 48.6667 45.625 47.75 43.5 47.75C41.375 47.75 39.5417 48.6667 38 50.5C36.4583 52.3333 35.6875 54.5417 35.6875 57.125C35.6875 59.6667 36.4583 61.875 38 63.75ZM22.25 45.25L26.75 47.5C30 41.125 35.5833 36.5417 43.5 33.75L41.875 29C32.625 32.2917 26.0833 37.7083 22.25 45.25ZM82 63.75C83.5417 65.5833 85.375 66.5 87.5 66.5C89.625 66.5 91.4583 65.5833 93 63.75C94.5417 61.875 95.3125 59.6667 95.3125 57.125C95.3125 54.5417 94.5417 52.3333 93 50.5C91.4583 48.6667 89.625 47.75 87.5 47.75C85.375 47.75 83.5417 48.6667 82 50.5C80.4583 52.3333 79.6875 54.5417 79.6875 57.125C79.6875 59.6667 80.4583 61.875 82 63.75ZM87.5 33.75C95.4167 36.5417 101 41.125 104.25 47.5L108.75 45.25C104.917 37.7083 98.375 32.2917 89.125 29L87.5 33.75Z" fill="white"/>
<path d="M37.9776 112.234C40.4598 112.234 42.5234 111.381 44.1682 109.677C45.8131 107.972 46.6355 105.819 46.6355 103.217C46.6355 101.183 46.2318 99.1196 45.4243 97.0262C44.6467 94.9028 43.7346 92.8542 42.6878 90.8804L37.9776 81.7738L33.2673 90.8804C32.2505 92.8542 31.3383 94.9028 30.5308 97.0262C29.7533 99.1196 29.3645 101.183 29.3645 103.217C29.3645 105.879 30.157 108.047 31.7421 109.721C33.357 111.396 35.4355 112.234 37.9776 112.234ZM37.9776 115.598C35.6748 115.598 33.6112 115.06 31.7869 113.983C29.9925 112.907 28.572 111.426 27.5252 109.542C26.5084 107.688 26 105.579 26 103.217C26 100.884 26.4486 98.5065 27.3458 96.0841C28.243 93.6318 29.2598 91.329 30.3963 89.1757L37.9776 75L45.6037 89.1757C46.7701 91.329 47.7869 93.6318 48.6542 96.0841C49.5514 98.5065 50 100.884 50 103.217C50 105.579 49.4766 107.688 48.4299 109.542C47.3832 111.426 45.9477 112.907 44.1234 113.983C42.329 115.06 40.2804 115.598 37.9776 115.598Z" fill="white"/>
</svg>
