<svg width="131" height="131" viewBox="0 0 131 131" fill="none" xmlns="http://www.w3.org/2000/svg">
<path fill-rule="evenodd" clip-rule="evenodd" d="M51.75 103.875C55.25 106.125 59.8333 107.25 65.5 107.25C71.2083 107.25 75.7917 106.125 79.25 103.875C82.7083 101.583 84.4375 98.6042 84.4375 94.9375C84.4375 92.1875 83.5208 89.6042 81.6875 87.1875C79.8958 84.7292 77.5625 82.7292 74.6875 81.1875C71.8125 79.6458 68.75 78.875 65.5 78.875C62.2917 78.875 59.2292 79.6458 56.3125 81.1875C53.4375 82.7292 51.0833 84.7292 49.25 87.1875C47.4583 89.6042 46.5625 92.1875 46.5625 94.9375C46.5625 98.6042 48.2917 101.583 51.75 103.875ZM27.3125 70.1875L31.0625 73.5625L42.2259 61.2799L55.3125 70.5L58.1875 66.375L45.6338 57.5304L56 46.125L52.25 42.75L41.4777 54.6022L27.9375 45.0625L25.0625 49.1875L38.0698 58.3517L27.3125 70.1875ZM24.8125 33.1875L28.1875 36.9375C33.4375 32.1042 40.2917 29.6875 48.75 29.6875V24.6875C39 24.6875 31.0208 27.5208 24.8125 33.1875ZM88.7741 61.2799L99.9375 73.5625L103.688 70.1875L92.9302 58.3517L105.938 49.1875L103.062 45.0625L89.5223 54.6022L78.75 42.75L75 46.125L85.3662 57.5304L72.8125 66.375L75.6875 70.5L88.7741 61.2799ZM82.25 29.6875C90.7083 29.6875 97.5625 32.1042 102.812 36.9375L106.188 33.1875C99.9792 27.5208 92 24.6875 82.25 24.6875V29.6875Z" fill="white"/>
</svg>
