<svg width="131" height="131" viewBox="0 0 131 131" fill="none" xmlns="http://www.w3.org/2000/svg">
<path fill-rule="evenodd" clip-rule="evenodd" d="M81.5 103.055C76.5 104.981 71.1667 105.944 65.5 105.944C59.8333 105.944 54.5 104.981 49.5 103.055C54.9167 100.083 60.25 98.5963 65.5 98.5963C70.75 98.5963 76.0833 100.083 81.5 103.055ZM50.0625 106.886C55.1458 108.561 60.2917 109.398 65.5 109.398C70.7083 109.398 75.8333 108.561 80.875 106.886C85.9583 105.211 90.5625 102.972 94.6875 100.166C98.8125 97.3612 102.104 94.2421 104.562 90.8089C107.021 87.3338 108.25 83.8379 108.25 80.321C108.25 78.6044 107.875 77.3902 107.125 76.6784C106.375 75.9248 105.333 75.548 104 75.548C103.083 75.548 102.042 75.6527 100.875 75.862C99.7083 76.0295 98.375 76.2807 96.875 76.6156C92.8333 77.5367 88.0208 78.3322 82.4375 79.0021C76.8958 79.672 71.25 80.007 65.5 80.007C59.75 80.007 54.0833 79.672 48.5 79.0021C42.9583 78.3322 38.1875 77.5367 34.1875 76.6156C32.6875 76.2807 31.3542 76.0295 30.1875 75.862C29.0208 75.6527 27.9583 75.548 27 75.548C25.7083 75.548 24.6875 75.9248 23.9375 76.6784C23.1875 77.3902 22.8125 78.6044 22.8125 80.321C22.8125 83.8379 24.0417 87.3338 26.5 90.8089C28.9583 94.2421 32.2292 97.3612 36.3125 100.166C40.4375 102.972 45.0208 105.211 50.0625 106.886ZM78.0625 88.0456C73.6042 88.3387 69.4167 88.4852 65.5 88.4852C61.625 88.4852 57.4375 88.3387 52.9375 88.0456C48.4792 87.7106 44.0208 87.2082 39.5625 86.5383C35.1042 85.8266 30.9375 84.9474 27.0625 83.9007V80.4466C27.0625 79.8604 27.25 79.5045 27.625 79.3789C28.0417 79.2115 28.5208 79.1905 29.0625 79.3161C32.4375 80.1116 36.2292 80.8234 40.4375 81.4514C44.6875 82.0794 49 82.5818 53.375 82.9586C57.75 83.2936 61.7917 83.4611 65.5 83.4611C69.25 83.4611 73.2917 83.2936 77.625 82.9586C82 82.5818 86.3125 82.0794 90.5625 81.4514C94.8125 80.8234 98.6042 80.1116 101.938 79.3161C102.479 79.1905 102.938 79.2115 103.312 79.3789C103.729 79.5045 103.938 79.8604 103.938 80.4466V83.9007C100.062 84.9474 95.8958 85.8266 91.4375 86.5383C86.9792 87.2082 82.5208 87.7106 78.0625 88.0456ZM39.1875 61.5432C40.6875 64.5158 42.5417 66.0021 44.75 66.0021C46.9583 66.0021 48.8125 64.5158 50.3125 61.5432C51.8542 58.5706 52.625 54.8862 52.625 50.49C52.625 46.0939 51.8542 42.4095 50.3125 39.4369C48.8125 36.4643 46.9583 34.978 44.75 34.978C42.5417 34.978 40.6875 36.4643 39.1875 39.4369C37.6875 42.4095 36.9375 46.0939 36.9375 50.49C36.9375 54.8862 37.6875 58.5706 39.1875 61.5432ZM80.6875 61.5432C82.1875 64.5158 84.0417 66.0021 86.25 66.0021C88.4583 66.0021 90.3125 64.5158 91.8125 61.5432C93.3542 58.5706 94.125 54.8862 94.125 50.49C94.125 46.0939 93.3542 42.4095 91.8125 39.4369C90.3125 36.4643 88.4583 34.978 86.25 34.978C84.0833 34.978 82.2292 36.4643 80.6875 39.4369C79.1875 42.4095 78.4375 46.0939 78.4375 50.49C78.4375 54.8862 79.1875 58.5706 80.6875 61.5432Z" fill="black"/>
</svg>
