<svg width="131" height="131" viewBox="0 0 131 131" fill="none" xmlns="http://www.w3.org/2000/svg">
<path fill-rule="evenodd" clip-rule="evenodd" d="M46.125 103.386C47.7175 104.116 49.3633 104.779 51.0625 105.375C55.2342 106.79 59.4217 107.589 63.625 107.772V95.9749C57.7917 95.8374 51.9583 95.1334 46.125 93.8629V103.386ZM42.375 92.9681V101.491C40.8854 100.663 39.4479 99.7705 38.0625 98.8125C34.1875 96.1042 31.0625 93.1042 28.6875 89.8125C28.2326 89.1626 27.822 88.5127 27.4557 87.8627C32.4288 89.9762 37.4019 91.678 42.375 92.9681ZM46.125 90.0267C51.9727 91.3608 57.806 92.0945 63.625 92.2278V80.853C60.8875 80.7895 58.0125 80.5885 55 80.25C51.9706 79.8713 49.0122 79.4642 46.125 79.0286V90.0267ZM42.375 78.4258V89.0894C36.7678 87.5658 31.1474 85.4914 25.5138 82.8661C25.2963 81.8482 25.1875 80.8304 25.1875 79.8125C25.1875 78.6458 25.4583 77.8125 26 77.3125C26.5833 76.8125 27.5417 76.5625 28.875 76.5625C30.25 76.5625 32.2917 76.7917 35 77.25C37.2262 77.5873 39.6846 77.9792 42.375 78.4258ZM67.375 80.8539V92.2306C73.1975 92.1058 79.0309 91.3796 84.875 90.0522V79.0317C82.0224 79.4661 79.0849 79.8722 76.0625 80.25C73.0695 80.5901 70.1737 80.7914 67.375 80.8539ZM88.625 78.4254V89.1182C94.2329 87.5989 99.8507 85.5267 105.478 82.9018C105.701 81.872 105.812 80.8423 105.812 79.8125C105.812 78.6458 105.542 77.8125 105 77.3125C104.458 76.8125 103.5 76.5625 102.125 76.5625C100.708 76.5625 98.6458 76.7917 95.9375 77.25C93.7456 77.5872 91.3081 77.979 88.625 78.4254ZM103.497 87.9469C98.5519 90.0702 93.5947 91.7737 88.625 93.0573V101.491C90.1146 100.663 91.5521 99.7705 92.9375 98.8125C96.8542 96.1042 99.9792 93.1042 102.312 89.8125C102.748 89.1906 103.143 88.5687 103.497 87.9469ZM84.875 103.386V93.9456C79.0587 95.1992 73.2254 95.8791 67.375 95.9853V107.772C71.61 107.59 75.7975 106.791 79.9375 105.375C81.6367 104.779 83.2825 104.116 84.875 103.386ZM81.625 109.375C76.3333 111.25 70.9583 112.188 65.5 112.188C60.0417 112.188 54.6667 111.25 49.375 109.375C44.0833 107.542 39.2708 105.083 34.9375 102C30.6458 98.875 27.2083 95.3958 24.625 91.5625C22.0833 87.7292 20.8125 83.8125 20.8125 79.8125C20.8125 77.3542 21.5208 75.4792 22.9375 74.1875C24.3542 72.8542 26.3333 72.1875 28.875 72.1875C30.7917 72.1875 33.6042 72.5417 37.3125 73.25C41.0625 73.9583 45.375 74.6875 50.25 75.4375C55.125 76.1458 60.2083 76.5 65.5 76.5C70.7917 76.5 75.875 76.1458 80.75 75.4375C85.625 74.6875 89.9375 73.9583 93.6875 73.25C97.4375 72.5417 100.25 72.1875 102.125 72.1875C104.667 72.1875 106.646 72.8542 108.062 74.1875C109.479 75.4792 110.188 77.3542 110.188 79.8125C110.188 83.8125 108.896 87.7292 106.312 91.5625C103.771 95.3958 100.354 98.875 96.0625 102C91.7708 105.083 86.9583 107.542 81.625 109.375ZM30.625 58.6875L35.25 59.5625C36.375 53.8958 39.1458 51.0625 43.5625 51.0625C48.0208 51.0625 50.7917 53.8958 51.875 59.5625L56.5 58.6875C55.75 54.7708 54.25 51.75 52 49.625C49.7917 47.4583 46.9792 46.375 43.5625 46.375C40.1875 46.375 37.375 47.4583 35.125 49.625C32.9167 51.75 31.4167 54.7708 30.625 58.6875ZM74.5 58.6875L79.125 59.5625C80.25 53.8958 83.0208 51.0625 87.4375 51.0625C91.8958 51.0625 94.6667 53.8958 95.75 59.5625L100.375 58.6875C99.625 54.7708 98.125 51.75 95.875 49.625C93.6667 47.4583 90.8542 46.375 87.4375 46.375C84.0625 46.375 81.25 47.4583 79 49.625C76.7917 51.75 75.2917 54.7708 74.5 58.6875Z" fill="black"/>
</svg>
