<svg width="131" height="131" viewBox="0 0 131 131" fill="none" xmlns="http://www.w3.org/2000/svg">
<path fill-rule="evenodd" clip-rule="evenodd" d="M57 103.562C60 104.854 63.1458 105.5 66.4375 105.5C69.7708 105.5 72.9167 104.854 75.875 103.562C78.8333 102.229 81.2292 100.5 83.0625 98.375C84.9375 96.2083 85.875 93.8958 85.875 91.4375C85.875 89.4375 85.2083 87.7292 83.875 86.3125C82.5833 84.8958 80.8333 84.1875 78.625 84.1875C76.9167 84.1875 75 84.5 72.875 85.125C70.75 85.75 68.6042 86.0625 66.4375 86.0625C64.2708 86.0625 62.125 85.75 60 85.125C57.875 84.5 55.9583 84.1875 54.25 84.1875C52.0417 84.1875 50.2708 84.8958 48.9375 86.3125C47.6458 87.7292 47 89.4375 47 91.4375C47 93.8958 47.9167 96.2083 49.75 98.375C51.625 100.5 54.0417 102.229 57 103.562ZM22.5625 62.625C27.2708 66.625 33.8333 69.5417 42.25 71.375C47.1667 66.875 50.8333 62.4583 53.25 58.125C55.6667 53.7917 56.875 49.6667 56.875 45.75C56.875 41.8333 55.7917 38.5625 53.625 35.9375C51.4583 33.3125 48.7083 32 45.375 32C41.125 32 37.4583 34.2083 34.375 38.625C31.7083 37.25 29.2083 36.5625 26.875 36.5625C23.625 36.5625 20.9167 37.6875 18.75 39.9375C16.625 42.1875 15.5625 45.0417 15.5625 48.5C15.5625 53.875 17.8958 58.5833 22.5625 62.625ZM77.75 58.125C80.1667 62.4583 83.8333 66.875 88.75 71.375C97.2083 69.5417 103.771 66.625 108.438 62.625C113.104 58.5833 115.438 53.875 115.438 48.5C115.438 45.0417 114.354 42.1875 112.188 39.9375C110.062 37.6875 107.375 36.5625 104.125 36.5625C101.792 36.5625 99.2917 37.25 96.625 38.625C93.5417 34.2083 89.875 32 85.625 32C82.3333 32 79.5833 33.3125 77.375 35.9375C75.2083 38.5625 74.125 41.8333 74.125 45.75C74.125 49.6667 75.3333 53.7917 77.75 58.125Z" fill="black"/>
</svg>
