<svg width="131" height="131" viewBox="0 0 131 131" fill="none" xmlns="http://www.w3.org/2000/svg">
<path fill-rule="evenodd" clip-rule="evenodd" d="M54.875 102.438C58.4167 104.104 61.9583 104.938 65.5 104.938C69.0833 104.938 72.6458 104.104 76.1875 102.438C79.7292 100.771 83.1667 98.4792 86.5 95.5625L83.375 92.0625C80.4583 94.6042 77.5 96.6042 74.5 98.0625C71.5417 99.5208 68.5417 100.25 65.5 100.25C62.5 100.25 59.5 99.5208 56.5 98.0625C53.5 96.6042 50.5417 94.6042 47.625 92.0625L44.5625 95.5625C47.8958 98.4792 51.3333 100.771 54.875 102.438ZM32.6875 66.1875C35.1875 67.3958 37.75 68 40.375 68C43 68 45.5625 67.3958 48.0625 66.1875C50.6042 64.9375 52.9583 63.1042 55.125 60.6875L51.875 57.8125C48.4167 61.6875 44.5833 63.625 40.375 63.625C36.2083 63.625 32.375 61.6875 28.875 57.8125L25.625 60.6875C27.8333 63.1042 30.1875 64.9375 32.6875 66.1875ZM21.4375 42.3125L24.8125 45C29.6042 39.25 36.1042 36 44.3125 35.25L43.5625 30.9375C34.1875 31.8542 26.8125 35.6458 21.4375 42.3125ZM75.875 60.6875C80.4167 65.5625 85.3333 68 90.625 68C93.25 68 95.8125 67.3958 98.3125 66.1875C100.854 64.9375 103.208 63.1042 105.375 60.6875L102.125 57.8125C98.6667 61.6875 94.8333 63.625 90.625 63.625C86.4583 63.625 82.625 61.6875 79.125 57.8125L75.875 60.6875ZM86.6875 35.25C94.8958 36 101.396 39.25 106.188 45L109.562 42.3125C104.188 35.6458 96.8125 31.8542 87.4375 30.9375L86.6875 35.25Z" fill="black"/>
</svg>
