<svg width="131" height="131" viewBox="0 0 131 131" fill="none" xmlns="http://www.w3.org/2000/svg">
<path fill-rule="evenodd" clip-rule="evenodd" d="M41.9375 104.875L45.0625 108.75C52.3125 102.792 59.125 99.8125 65.5 99.8125C71.875 99.8125 78.6875 102.792 85.9375 108.75L89.0625 104.875C80.8958 98.1667 73.0417 94.8125 65.5 94.8125C57.9583 94.8125 50.1042 98.1667 41.9375 104.875ZM40.25 83.9375C41.7917 85.6875 43.6667 86.5625 45.875 86.5625C47.75 86.5625 49.375 85.9375 50.75 84.6875C52.1667 83.3958 53.1042 81.7917 53.5625 79.875C53.6458 79.5833 53.6875 79.3125 53.6875 79.0625L53.8125 78.1875L57.25 74.125C53.5833 71.1667 49.7292 68.5625 45.6875 66.3125C41.6875 64.0208 37.4792 62.1458 33.0625 60.6875L31.4375 65.4375C32.8958 65.8958 34.375 66.4583 35.875 67.125C37.4167 67.7917 39.2708 68.7292 41.4375 69.9375C40.3958 70.7292 39.5417 71.7917 38.875 73.125C38.25 74.4583 37.9375 75.9167 37.9375 77.5C37.9375 80 38.7083 82.1458 40.25 83.9375ZM80.1875 84.6875C81.6042 85.9375 83.25 86.5625 85.125 86.5625C87.3333 86.5625 89.2083 85.6875 90.75 83.9375C92.2917 82.1458 93.0625 80 93.0625 77.5C93.0625 75.9167 92.75 74.4583 92.125 73.125C91.5 71.7917 90.6458 70.7292 89.5625 69.9375C91.7708 68.7292 93.625 67.7917 95.125 67.125C96.6667 66.4583 98.1458 65.8958 99.5625 65.4375L97.9375 60.6875C93.5208 62.1458 89.2917 64.0208 85.25 66.3125C81.25 68.5625 77.4167 71.1667 73.75 74.125L77.1875 78.1875L77.3125 79.0625C77.3542 79.3125 77.3958 79.5833 77.4375 79.875C77.8958 81.7917 78.8125 83.3958 80.1875 84.6875Z" fill="black"/>
</svg>
