<svg width="131" height="131" viewBox="0 0 131 131" fill="none" xmlns="http://www.w3.org/2000/svg">
<path fill-rule="evenodd" clip-rule="evenodd" d="M49 99.3125V104.312H82V99.3125H49ZM31.625 75.75C34.25 77.0417 36.9583 77.6875 39.75 77.6875C42.5417 77.6875 45.2292 77.0625 47.8125 75.8125C50.4375 74.5208 52.7292 72.6667 54.6875 70.25L50.9375 66.9375C47.7292 70.7708 44 72.6875 39.75 72.6875C35.5417 72.6875 31.7917 70.7917 28.5 67L24.75 70.3125C26.75 72.6458 29.0417 74.4583 31.625 75.75ZM18.875 46.6875L20.1875 51.5C25.5208 50.0833 29.8542 48.3333 33.1875 46.25C36.5625 44.125 39.2708 41.4792 41.3125 38.3125L37.125 35.625C35.3333 38.2917 33 40.5 30.125 42.25C27.25 44 23.5 45.4792 18.875 46.6875ZM83.125 75.8125C85.75 77.0625 88.4583 77.6875 91.25 77.6875C94.0417 77.6875 96.7292 77.0417 99.3125 75.75C101.938 74.4583 104.25 72.6458 106.25 70.3125L102.5 67C99.2083 70.7917 95.4583 72.6875 91.25 72.6875C87 72.6875 83.2708 70.7708 80.0625 66.9375L76.3125 70.25C78.2708 72.6667 80.5417 74.5208 83.125 75.8125ZM97.8125 46.25C101.188 48.3333 105.521 50.0833 110.812 51.5L112.125 46.6875C107.5 45.4792 103.75 44 100.875 42.25C98 40.5 95.6667 38.2917 93.875 35.625L89.6875 38.3125C91.7708 41.4792 94.4792 44.125 97.8125 46.25Z" fill="white"/>
</svg>
