<svg width="131" height="131" viewBox="0 0 131 131" fill="none" xmlns="http://www.w3.org/2000/svg">
<path fill-rule="evenodd" clip-rule="evenodd" d="M46.5 107C48.125 108.667 50.1875 109.5 52.6875 109.5C54.3958 109.5 56.2708 109.229 58.3125 108.688C60.3542 108.104 62.75 107.812 65.5 107.812C68.25 107.812 70.6458 108.104 72.6875 108.688C74.7292 109.229 76.6042 109.5 78.3125 109.5C80.8125 109.5 82.875 108.667 84.5 107C86.125 105.333 86.9375 103.271 86.9375 100.812C86.9375 98.1042 85.9583 95.6458 84 93.4375C82.0833 91.1875 79.5 89.4167 76.25 88.125C73 86.7917 69.4167 86.125 65.5 86.125C61.5833 86.125 58 86.7917 54.75 88.125C51.5 89.4167 48.8958 91.1875 46.9375 93.4375C45.0208 95.6458 44.0625 98.1042 44.0625 100.812C44.0625 103.271 44.875 105.333 46.5 107ZM37.9375 67.5C39.4792 69.3333 41.3333 70.25 43.5 70.25C45.6667 70.25 47.5 69.3333 49 67.5C50.5417 65.625 51.3125 63.4167 51.3125 60.875C51.3125 58.2917 50.5417 56.0833 49 54.25C47.5 52.4167 45.6667 51.5 43.5 51.5C41.375 51.5 39.5417 52.4167 38 54.25C36.4583 56.0833 35.6875 58.2917 35.6875 60.875C35.6875 63.4167 36.4375 65.625 37.9375 67.5ZM22 32.625L25.3125 36.375C28.1458 33.7917 31.125 31.9375 34.25 30.8125C37.4167 29.6458 41 29.0625 45 29.0625V24.0625C39.8333 24.0625 35.4167 24.8333 31.75 26.375C28.125 27.9167 24.875 30 22 32.625ZM81.9375 67.5C83.4792 69.3333 85.3333 70.25 87.5 70.25C89.6667 70.25 91.5 69.3333 93 67.5C94.5417 65.625 95.3125 63.4167 95.3125 60.875C95.3125 58.2917 94.5417 56.0833 93 54.25C91.5 52.4167 89.6667 51.5 87.5 51.5C85.375 51.5 83.5417 52.4167 82 54.25C80.4583 56.0833 79.6875 58.2917 79.6875 60.875C79.6875 63.4167 80.4375 65.625 81.9375 67.5ZM96.75 30.8125C99.9167 31.9375 102.896 33.7917 105.688 36.375L109 32.625C106.125 30 102.854 27.9167 99.1875 26.375C95.5625 24.8333 91.1667 24.0625 86 24.0625V29.0625C90 29.0625 93.5833 29.6458 96.75 30.8125Z" fill="black"/>
</svg>
