<svg width="131" height="131" viewBox="0 0 131 131" fill="none" xmlns="http://www.w3.org/2000/svg">
<path fill-rule="evenodd" clip-rule="evenodd" d="M50 104.625C51.125 105.75 52.6458 106.312 54.5625 106.312C56.0208 106.312 57.6667 106.062 59.5 105.562C61.375 105.021 63.25 104.75 65.125 104.75C67 104.75 68.8542 105.021 70.6875 105.562C72.5625 106.062 74.25 106.312 75.75 106.312C77.6667 106.312 79.1875 105.75 80.3125 104.625C81.4375 103.458 82 101.958 82 100.125C82 97.9583 81.1875 95.8958 79.5625 93.9375C77.9792 91.9792 75.8958 90.375 73.3125 89.125C70.7708 87.875 68.0417 87.25 65.125 87.25C62.25 87.25 59.5208 87.875 56.9375 89.125C54.3958 90.375 52.3125 91.9792 50.6875 93.9375C49.1042 95.8958 48.3125 97.9583 48.3125 100.125C48.3125 101.958 48.875 103.458 50 104.625ZM32.125 64.9375C34.7083 66.1458 37.3333 66.75 40 66.75C42.7083 66.75 45.3333 66.1458 47.875 64.9375C50.4583 63.6875 52.7708 61.8542 54.8125 59.4375L51.5 56.5625C48.2083 60.4375 44.375 62.375 40 62.375C35.6667 62.375 31.8542 60.4375 28.5625 56.5625L25.25 59.4375C27.2917 61.8542 29.5833 63.6875 32.125 64.9375ZM82.375 64.9375C84.9583 66.1458 87.5833 66.75 90.25 66.75C92.9583 66.75 95.5833 66.1458 98.125 64.9375C100.708 63.6875 103.021 61.8542 105.062 59.4375L101.75 56.5625C98.4583 60.4375 94.625 62.375 90.25 62.375C85.9167 62.375 82.1042 60.4375 78.8125 56.5625L75.5 59.4375C77.5417 61.8542 79.8333 63.6875 82.375 64.9375Z" fill="black"/>
<path d="M67.1506 45L58 42.0482L58.6325 40.0241L67.8253 33.5723L67.9096 34.8373L61.3313 32.7289L62.0904 30.3253L70.6928 33.0663L70.0602 35.1325L61.0783 41.5843L60.741 40.2349L67.994 42.512L67.1506 45ZM83.8916 39.5602L74.3614 38.253L74.6566 36.1024L82.6265 28.0904L82.9639 29.4819L76.006 28.5542L76.3855 26.0241L85.3253 27.2048L85.0301 29.3554L77.3133 37.2831L77.0602 36.0181L84.2711 36.9458L83.8916 39.5602ZM100.886 33.4036L90.0904 30.9157L90.5964 28.5964L100.717 19.9518L100.928 21.5542L93 19.741L93.6325 17L103.753 19.2771L103.247 21.6386L93.1265 30.3675L92.9578 28.6807L101.56 30.5783L100.886 33.4036Z" fill="black"/>
</svg>
