<svg width="131" height="131" viewBox="0 0 131 131" fill="none" xmlns="http://www.w3.org/2000/svg">
<path fill-rule="evenodd" clip-rule="evenodd" d="M37.125 88.5C46.1667 94.5833 55.625 97.625 65.5 97.625C75.375 97.625 84.8333 94.5833 93.875 88.5L91.125 84.3125C82.8333 89.8542 74.2917 92.625 65.5 92.625C56.7083 92.625 48.1667 89.8542 39.875 84.3125L37.125 88.5ZM37.3125 57.6875C38.8542 59.3958 40.7083 60.25 42.875 60.25C45.0417 60.25 46.875 59.3958 48.375 57.6875C49.9167 55.9792 50.6875 53.7083 50.6875 50.875C50.6875 48.0417 49.9167 45.7708 48.375 44.0625C46.875 42.3542 45.0417 41.5 42.875 41.5C40.7083 41.5 38.8542 42.3542 37.3125 44.0625C35.8125 45.7708 35.0625 48.0417 35.0625 50.875C35.0625 53.7083 35.8125 55.9792 37.3125 57.6875ZM82.5625 57.6875C84.1042 59.3958 85.9583 60.25 88.125 60.25C90.2917 60.25 92.125 59.3958 93.625 57.6875C95.1667 55.9792 95.9375 53.7083 95.9375 50.875C95.9375 48.0417 95.1667 45.7708 93.625 44.0625C92.125 42.3542 90.2917 41.5 88.125 41.5C85.9583 41.5 84.1042 42.3542 82.5625 44.0625C81.0625 45.7708 80.3125 48.0417 80.3125 50.875C80.3125 53.7083 81.0625 55.9792 82.5625 57.6875Z" fill="black"/>
</svg>
