<svg width="130" height="131" viewBox="0 0 130 131" fill="none" xmlns="http://www.w3.org/2000/svg">
<path fill-rule="evenodd" clip-rule="evenodd" d="M81 102.562C76 104.479 70.6667 105.438 65 105.438C59.3333 105.438 54 104.479 49 102.562C54.4167 99.6042 59.75 98.125 65 98.125C70.25 98.125 75.5833 99.6042 81 102.562ZM49.5625 106.375C54.6458 108.042 59.7917 108.875 65 108.875C70.2083 108.875 75.3333 108.042 80.375 106.375C85.4583 104.708 90.0625 102.479 94.1875 99.6875C98.3125 96.8958 101.604 93.7917 104.062 90.375C106.521 86.9167 107.75 83.4375 107.75 79.9375C107.75 78.2292 107.375 77.0208 106.625 76.3125C105.875 75.5625 104.833 75.1875 103.5 75.1875C102.583 75.1875 101.542 75.2917 100.375 75.5C99.2083 75.6667 97.875 75.9167 96.375 76.25C92.3333 77.1667 87.5208 77.9583 81.9375 78.625C76.3958 79.2917 70.75 79.625 65 79.625C59.25 79.625 53.5833 79.2917 48 78.625C42.4583 77.9583 37.6875 77.1667 33.6875 76.25C32.1875 75.9167 30.8542 75.6667 29.6875 75.5C28.5208 75.2917 27.4583 75.1875 26.5 75.1875C25.2083 75.1875 24.1875 75.5625 23.4375 76.3125C22.6875 77.0208 22.3125 78.2292 22.3125 79.9375C22.3125 83.4375 23.5417 86.9167 26 90.375C28.4583 93.7917 31.7292 96.8958 35.8125 99.6875C39.9375 102.479 44.5208 104.708 49.5625 106.375ZM77.5625 87.625C73.1042 87.9167 68.9167 88.0625 65 88.0625C61.125 88.0625 56.9375 87.9167 52.4375 87.625C47.9792 87.2917 43.5208 86.7917 39.0625 86.125C34.6042 85.4167 30.4375 84.5417 26.5625 83.5V80.0625C26.5625 79.4792 26.75 79.125 27.125 79C27.5417 78.8333 28.0208 78.8125 28.5625 78.9375C31.9375 79.7292 35.7292 80.4375 39.9375 81.0625C44.1875 81.6875 48.5 82.1875 52.875 82.5625C57.25 82.8958 61.2917 83.0625 65 83.0625C68.75 83.0625 72.7917 82.8958 77.125 82.5625C81.5 82.1875 85.8125 81.6875 90.0625 81.0625C94.3125 80.4375 98.1042 79.7292 101.438 78.9375C101.979 78.8125 102.438 78.8333 102.812 79C103.229 79.125 103.438 79.4792 103.438 80.0625V83.5C99.5625 84.5417 95.3958 85.4167 90.9375 86.125C86.4792 86.7917 82.0208 87.2917 77.5625 87.625Z" fill="black"/>
<path d="M27.2192 63.5379C26.3183 63.5379 25.8678 62.5586 25.8678 60.6V47.9085L16.878 42.6203C14.2927 41.0927 13 39.9763 13 39.2712C13 38.7228 13.2154 38.3115 13.6463 38.0373C14.0772 37.7239 14.8215 37.4301 15.8791 37.1559L27.8068 34.1593L29.6282 25.3458C30.0983 23.0738 30.5488 21.4482 30.9797 20.4689C31.4105 19.4896 31.9002 19 32.4486 19C32.9578 19 33.565 19.3917 34.2701 20.1751C34.9751 20.9194 35.8957 22.2121 37.0316 24.0531L41.7322 31.6328L54.0124 30.5164C56.2844 30.3205 57.4203 30.7318 57.4203 31.7503C57.4203 32.6121 56.5977 34.0222 54.9525 35.9808L48.313 43.913L52.426 54.7243C52.9352 56.1345 53.1898 57.1725 53.1898 57.8384C53.1898 58.661 52.7785 59.0723 51.9559 59.0723C51.4467 59.0723 50.487 58.8177 49.0768 58.3085L38.5593 54.2542L30.2158 61.7164C28.884 62.9307 27.8851 63.5379 27.2192 63.5379ZM102.84 63.5379C102.213 63.5379 101.194 62.9307 99.7842 61.7164L91.4994 54.2542L80.9232 58.3085C79.513 58.8177 78.5729 59.0723 78.1028 59.0723C77.2411 59.0723 76.8102 58.661 76.8102 57.8384C76.8102 57.4859 76.8885 57.0354 77.0452 56.487C77.2019 55.9386 77.3977 55.351 77.6328 54.7243L81.7458 43.913L75.1062 35.9808C73.4218 33.9831 72.5797 32.5729 72.5797 31.7503C72.5797 30.7318 73.7156 30.3205 75.9876 30.5164L88.2678 31.6328L92.9684 24.0531C94.1043 22.2121 95.0249 20.9194 95.7299 20.1751C96.4742 19.3917 97.1009 19 97.6102 19C98.1586 19 98.6482 19.4896 99.0791 20.4689C99.51 21.4482 99.9605 23.0738 100.431 25.3458L102.252 34.1593L114.121 37.1559C116.04 37.626 117 38.3311 117 39.2712C117 40.0154 115.727 41.1318 113.181 42.6203L104.191 47.9085V60.6C104.191 62.5586 103.74 63.5379 102.84 63.5379Z" fill="black"/>
</svg>
